<!DOCTYPE svg PUBLIC "-//W3C//DTD SVG 1.1//EN" "http://www.w3.org/Graphics/SVG/1.1/DTD/svg11.dtd">
<!-- Uploaded to: SVG Repo, www.svgrepo.com, Transformed by: SVG Repo Mixer Tools -->
<svg fill="#000000" height="256px" width="256px" version="1.1" id="Layer_1" xmlns="http://www.w3.org/2000/svg" xmlns:xlink="http://www.w3.org/1999/xlink" viewBox="-20.48 -20.48 552.96 552.96" xml:space="preserve" stroke="#000000" stroke-width="25.59995">
<g id="SVGRepo_bgCarrier" stroke-width="0"/>
<g id="SVGRepo_tracerCarrier" stroke-linecap="round" stroke-linejoin="round"/>
<g id="SVGRepo_iconCarrier"> <g> <g> <path d="M467.706,290.72l-89.296-89.294c-3.809-3.808-9.983-3.808-13.791,0l-35.729,35.73V131.073 c0-1.701-0.437-3.299-1.203-4.691c-0.022-0.039-0.048-0.075-0.07-0.114c-0.135-0.237-0.274-0.469-0.429-0.694 c-0.061-0.09-0.13-0.173-0.195-0.26c-0.124-0.169-0.247-0.338-0.381-0.498c-0.085-0.101-0.177-0.195-0.267-0.293 c-0.126-0.139-0.252-0.28-0.387-0.411c-0.022-0.022-0.042-0.047-0.065-0.069L199.613,2.72c-0.039-0.038-0.083-0.065-0.124-0.101 c-0.277-0.257-0.568-0.498-0.872-0.722c-0.062-0.046-0.123-0.095-0.187-0.14c-0.346-0.242-0.709-0.46-1.086-0.657 c-0.066-0.034-0.134-0.064-0.202-0.097c-0.337-0.165-0.684-0.312-1.043-0.438c-0.064-0.022-0.125-0.048-0.189-0.069 c-0.399-0.131-0.809-0.238-1.229-0.319c-0.079-0.016-0.157-0.023-0.237-0.036c-0.335-0.055-0.675-0.092-1.021-0.112 c-0.117-0.007-0.234-0.016-0.351-0.018C193.003,0.009,192.931,0,192.857,0H76.506c-5.387,0-9.751,4.366-9.751,9.751v121.323 c0,5.385,4.365,9.751,9.751,9.751h106.6v96.332l-35.73-35.73c-3.81-3.808-9.983-3.808-13.791,0l-89.294,89.294 c-3.808,3.808-3.808,9.981,0,13.79l49.937,49.937c3.808,3.807,9.981,3.808,13.791,0c3.808-3.808,3.808-9.981,0-13.79 l-43.042-43.042l75.503-75.503l190.843,190.841l-75.503,75.503l-98.39-98.39c-3.81-3.808-9.981-3.808-13.791,0 c-3.808,3.808-3.808,9.981,0,13.79l105.286,105.285c1.829,1.828,4.309,2.856,6.896,2.856c0.06,0,0.12-0.008,0.179-0.009 c0.06,0.001,0.12,0.009,0.179,0.009c2.586,0,5.065-1.027,6.896-2.856L467.709,304.51c1.828-1.828,2.855-4.309,2.855-6.895 C470.561,295.029,469.534,292.55,467.706,290.72z M183.106,121.323H86.258V19.503h96.848V121.323z M202.608,256.661V32.642 l106.779,102.586V256.66l-53.39,53.39L202.608,256.661z M345.293,399.343l-75.505-75.503l101.727-101.727l75.505,75.503 L345.293,399.343z"/> </g> </g> </g>
</svg>